<?xml version="1.0" encoding="utf-8"?>
<!-- Generator: Adobe Illustrator 26.4.1, SVG Export Plug-In . SVG Version: 6.00 Build 0)  -->
<svg version="1.0" id="katman_1" xmlns="http://www.w3.org/2000/svg" xmlns:xlink="http://www.w3.org/1999/xlink" x="0px" y="0px"
	 viewBox="0 0 668 508" style="enable-background:new 0 0 668 508;" xml:space="preserve">
<style type="text/css">
	.st0{fill:#010202;}
</style>
<path id="logo" class="st0" d="M328.34,59.13c0.31,0.45,0.54,0.76,0.76,1.08c3.23,4.66,6.46,9.28,9.73,13.94
	c0.46,0.6,0.69,1.35,0.64,2.11v59.92c0.06,0.03,0.12,0.04,0.18,0.04h0.09c0.13-0.13,0.27-0.22,0.41-0.36l52.8-52.83
	c0.06,0,0.12-0.02,0.18-0.04c0.05,0.22,0.08,0.45,0.09,0.67v125.8c0.04,0.92-0.25,1.82-0.81,2.56c-3.27,4.57-6.46,9.24-9.68,13.85
	c-0.18,0.27-0.41,0.54-0.67,0.89c-0.24-0.3-0.47-0.61-0.67-0.94c-3.27-4.66-6.5-9.35-9.8-14.03c-0.44-0.6-0.68-1.32-0.67-2.06v-72.9
	c-0.49,0-0.72,0.41-0.94,0.63c-5.11,5.11-10.27,10.24-15.38,15.38c-4.8,4.8-9.64,9.64-14.48,14.44c-0.5,0.45-0.76,1.11-0.72,1.78
	v73.04c0.54,0,0.98,0.04,1.43,0.04c16.45,0,32.92-0.01,49.41-0.04c1.45-0.04,2.87,0.4,4.03,1.26c4.35,3.12,8.74,6.14,13.14,9.19
	c0.27,0.22,0.58,0.41,0.94,0.67c-0.27,0.24-0.55,0.47-0.85,0.67c-4.75,3.32-9.46,6.59-14.17,9.91c-0.55,0.39-1.21,0.6-1.88,0.58
	h-51.97c0,0.54-0.04,0.98-0.04,1.43v43.27c0.03,0.88-0.24,1.75-0.76,2.47c-3.27,4.57-6.46,9.24-9.68,13.85
	c-0.22,0.27-0.41,0.58-0.67,0.94c-0.24-0.27-0.47-0.55-0.67-0.85c-3.32-4.75-6.59-9.46-9.91-14.21c-0.39-0.55-0.6-1.21-0.58-1.88
	v-45.01h-51.58c-0.99,0.03-1.97-0.27-2.78-0.83c-4.48-3.18-9.06-6.32-13.58-9.5c-0.31-0.22-0.63-0.45-1.03-0.76
	c0.24-0.22,0.5-0.43,0.76-0.63c4.8-3.36,9.59-6.68,14.34-10.04c0.56-0.39,1.24-0.58,1.93-0.54h51.87c0-0.45,0.04-0.85,0.04-1.21
	v-71.8c0.03-0.74-0.26-1.47-0.81-1.97c-9.91-9.86-19.8-19.76-29.68-29.68c-0.27-0.27-0.45-0.58-0.67-0.85
	c-0.07,0.05-0.14,0.08-0.22,0.09c-0.06,0.21-0.11,0.42-0.13,0.63c-0.02,0.33-0.02,0.66,0,0.98v71.11c0.02,0.86-0.24,1.7-0.76,2.38
	l-9.69,13.85c-0.22,0.31-0.45,0.63-0.72,0.98c-0.27-0.36-0.45-0.58-0.63-0.85c-3.23-4.62-6.55-9.41-9.86-14.17
	c-0.36-0.5-0.55-1.09-0.54-1.71V83.88c0-0.31,0.04-0.63,0.04-1.17l53.71,53.71c0-0.67,0.04-1.08,0.04-1.48V76.39
	c-0.01-0.92,0.28-1.82,0.82-2.57c3.23-4.53,6.37-9.1,9.55-13.67C327.81,59.89,328.03,59.57,328.34,59.13z M274.32,222.01
	c0.09,0,0.18-0.04,0.27-0.04v-108.9c0.01-0.64-0.1-1.28-0.31-1.88c-2.6-6.32-5.2-12.6-7.8-18.87c-0.09-0.22-0.22-0.45-0.36-0.72
	c-0.04,0-0.13,0.04-0.18,0.04v117.33c-0.02,0.71,0.2,1.41,0.63,1.97c2.42,3.41,4.78,6.86,7.22,10.3
	C273.96,221.52,274.14,221.79,274.32,222.01z M382.15,112.62c-0.04,0-0.13-0.04-0.18-0.04c-0.13,0.27-0.27,0.58-0.41,0.85
	c-2.51,6.14-5.02,12.28-7.53,18.38c-0.32,0.75-0.49,1.56-0.49,2.38v74.96c-0.03,0.5,0.12,0.99,0.41,1.39
	c2.6,3.68,5.16,7.35,7.71,11.03c0.15,0.18,0.32,0.34,0.49,0.49C382.15,185.52,382.15,149.04,382.15,112.62z M328.3,250.63v-87.04
	c-2.91,1.26-5.7,2.42-8.56,3.63v74.74c-0.05,0.57,0.18,1.12,0.63,1.48c2.38,2.11,4.75,4.3,7.09,6.41
	C327.7,250.15,327.99,250.41,328.3,250.63z M328.34,63.93c-0.36,0.45-0.54,0.72-0.76,0.98c-2.33,3.36-4.66,6.72-7.04,10.04
	c-0.55,0.75-0.84,1.67-0.81,2.6c0.04,6.46,0,12.92,0,19.37v42.19c-0.02,0.56,0.07,1.13,0.27,1.66c2.6,6.23,5.25,12.42,7.89,18.61
	c0.09,0.18,0.18,0.31,0.41,0.67C328.34,127.91,328.34,96.03,328.34,63.93z M329.24,162.52c0.41-0.36,0.63-0.54,0.81-0.72
	c16.95-16.99,33.88-33.97,50.8-50.93c0.35-0.34,0.62-0.76,0.81-1.21c2.67-6.32,5.34-12.69,7.98-19.01c0.12-0.32,0.23-0.65,0.31-0.98
	c-0.45,0.41-0.72,0.67-0.94,0.89c-16.72,16.72-33.44,33.46-50.16,50.21c-0.45,0.46-0.81,0.99-1.08,1.57
	c-2.69,6.32-5.38,12.66-8.07,19.01C329.56,161.62,329.47,161.93,329.24,162.52L329.24,162.52z M326.77,161.8
	c0.05-0.05,0.11-0.08,0.18-0.09c-0.13-0.31-0.22-0.63-0.36-0.94c-2.78-6.46-5.6-12.87-8.43-19.32c-0.23-0.55-0.57-1.05-0.98-1.48
	l-48.64-49.19l-0.81-0.81c-0.03,0.29,0.02,0.58,0.13,0.85c2.67,6.55,5.38,13.14,8.11,19.68c0.2,0.49,0.51,0.93,0.89,1.3
	c16.37,16.45,32.75,32.88,49.14,49.27C326.29,161.3,326.54,161.54,326.77,161.8L326.77,161.8z M328.61,252.99
	c0.04,0.04,0.09,0.13,0.13,0.18h74.86c-0.22-0.18-0.31-0.31-0.41-0.36c-3.77-2.65-7.53-5.25-11.3-7.85
	c-0.37-0.22-0.79-0.33-1.21-0.31h-51.81c-0.53-0.04-1.06,0.16-1.43,0.54c-2.65,2.42-5.34,4.8-8.02,7.17
	C329.15,252.56,328.87,252.77,328.61,252.99z M253.08,253.22h75.18c-0.41-0.36-0.63-0.54-0.85-0.76c-2.73-2.38-5.42-4.8-8.11-7.17
	c-0.43-0.42-1.01-0.64-1.61-0.63h-51.52c-0.61,0-1.21,0.19-1.71,0.54c-3.5,2.47-6.99,4.9-10.49,7.35
	C253.65,252.74,253.35,252.97,253.08,253.22z M328.17,321.68c0.04,0,0.13-0.04,0.18-0.04v-68.1c-0.22,0.22-0.36,0.31-0.49,0.45
	c-2.56,3-5.11,6.01-7.71,8.96c-0.29,0.37-0.42,0.84-0.36,1.3v44.66c-0.02,0.56,0.16,1.12,0.49,1.57c2.47,3.5,4.9,6.99,7.35,10.49
	C327.76,321.14,327.94,321.41,328.17,321.68z">
<animate  accumulate="none" additive="replace" attributeName="fill" calcMode="linear" dur="1s" fill="remove" repeatCount="indefinite" restart="always" values="#000000; #FFFFFF; #000000">
		</animate>
</path>
<path class="st0" d="M285.87,321.12c1.72,1.01,2.23,2.73,2.42,4.55c0.91,6.57,1.72,13.14,2.63,19.74c0.21,1.52,0.4,2.93,0.51,4.45
	c0.21,2.53,1.31,3.43,3.84,3.16c1.22-0.21,2.32-0.61,3.54-0.71c2.53-0.21,5.05-0.3,7.58-0.51c1.1-0.17,2.22-0.24,3.33-0.21
	c0.66,0.01,1.29,0.29,1.72,0.79c0.3,0.79-0.3,1.41-1.11,1.92c-0.68,0.47-1.32,1-1.92,1.58c-0.4,0.4-0.71,0.91-1.11,1.31
	c-1.9,2.02-3.57,4.26-4.95,6.67c-1.22,2.42-2.12,2.63-4.74,2.23c-1-0.23-2.01-0.37-3.03-0.4c-2.12-0.1-3.54,1.11-3.54,3.24
	c-0.23,4.94-0.23,9.89-0.42,14.84c-0.21,3.33-0.4,6.77-0.91,10.11c-0.71,4.15-0.3,8.19-0.1,12.33c0.21,2.73,0.1,5.46,0.21,8.19
	c0.04,1.43,0.35,2.83,0.91,4.15c1.12,2.14,2.45,4.17,3.95,6.06c0.69,0.77,1.56,1.37,2.53,1.72c0.87,0.34,1.3,1.33,0.96,2.2
	c-0.04,0.11-0.1,0.22-0.17,0.33c-0.87,1.9-2.42,3.41-4.34,4.24c-3.05,1.26-5.81,3.14-8.09,5.53c-0.94,0.93-1.95,1.77-3.03,2.53
	c-0.36,0.23-0.82,0.27-1.22,0.1c-0.66-0.31-1.28-0.72-1.82-1.22l-9.69-9.94c-0.89-0.94-1.64-2-2.23-3.16
	c-0.77-1.17-0.55-2.73,0.51-3.64c2.23-2.02,2.73-4.65,2.93-7.48c0.3-3.33,1.22-6.57,1.72-9.9c0.71-4.45,1.01-8.99,0-13.42
	c-0.27-1.83-0.34-3.68-0.21-5.53c0.21-5.86,0.21-11.72-0.79-17.48c-0.15-1.5-1.26-2.73-2.73-3.03c-2.3-0.69-4.74-0.83-7.11-0.4
	c-0.21,0-0.4,0.1-0.61,0.1c-2.12-0.4-3.33,0.61-4.34,2.42c-1.22,2.32-2.93,4.34-3.16,7.11c-0.02,0.22-0.09,0.42-0.21,0.61
	c-1.52,2.23-1.41,4.85-1.52,7.37c-0.21,5.66-0.61,11.21-0.51,16.87c0.09,3.56,0.42,7.1,1.01,10.61c0.34,1.77,0.37,3.58,0.1,5.35
	c-0.08,0.64-0.12,1.28-0.1,1.92c0.21,1.72,1.11,2.42,2.73,2.32c1.41-0.1,2.83-0.4,4.34-0.61c0.7-0.1,1.42-0.1,2.12,0
	c0.4-0.01,0.78,0.18,1.01,0.51c-0.04,0.46-0.18,0.91-0.4,1.31c-0.33,0.29-0.71,0.53-1.11,0.71c-6.17,2.53-10.51,6.87-14.05,12.33
	c-0.51,0.79-1.11,1.72-1.72,2.53c-0.91,1.11-1.72,1.22-2.73,0.3c-0.52-0.5-0.96-1.08-1.31-1.72c-0.79-1.52-1.41-3.03-2.23-4.55
	c-0.09-0.32-0.23-0.63-0.4-0.91c-1.22-2.02-2.23-2.32-4.04-0.79c-2.12,1.72-4.04,3.64-6.06,5.46s-4.24,3.84-6.47,5.66
	c-1.82,1.52-3.03,1.31-4.74-0.21c-5.35-4.85-10.91-9.47-17.17-13.14c-0.48-0.35-0.83-0.85-1.01-1.41c-0.37-2.68-0.54-5.38-0.51-8.09
	c0.21-4.34,0.71-8.69,1.01-13.04c0.05-2.34,1.03-4.56,2.73-6.17c2.38-2.13,4.87-4.12,7.48-5.96c2.93-2.23,3.16-3.54,0.79-6.26
	c-3.73-4.34-7.37-8.79-11.12-13.14c-0.28-0.33-0.58-0.63-0.91-0.91c-3.03,3.84-5.96,7.58-8.89,11.31c-1.01,1.34-1.54,2.98-1.52,4.65
	c0.21,6.17,0.1,12.33,0.61,18.39c0.21,3.24,1.31,6.47,1.92,9.7c0.4,1.92,0.79,3.84,1.11,5.86c0.26,1.39-0.24,2.81-1.31,3.73
	c-0.83,0.86-1.71,1.67-2.63,2.42c-2.73,2.32-3.84,5.66-4.74,8.89c-0.3,1.11-0.71,2.53-1.72,2.63c-1.01,0.1-2.12-0.79-2.83-1.52
	c-0.85-1.16-1.63-2.38-2.32-3.64c-0.28-0.56-0.62-1.09-1.01-1.58c-2.93-3.21-5.01-7.1-6.06-11.31c-0.3-1.11,0-2.42,0.1-3.64
	c0.51-3.73,1.41-7.48,1.52-11.31c0.19-5.19,0.02-10.39-0.51-15.56c-0.51-5.76-1.52-11.01-2.32-16.37c-0.24-1.08-0.58-2.14-1.01-3.16
	c-0.79-1.72-1.92-2.12-3.16-0.71c-1.7,1.66-3.13,3.57-4.24,5.66c-1.85,4.11-2.93,8.53-3.16,13.04c-0.4,7.18-0.61,14.21-1.11,21.42
	c-0.27,4.6,0.07,9.22,1.01,13.74c0.18,1.14,0.95,2.1,2.02,2.53c1.92,1.01,2.12,1.82,0.4,3.24c-1.17,1.01-2.52,1.8-3.97,2.32
	c-3.24,1.22-6.17,2.63-8.49,5.35c-1.31,1.52-2.23,1.41-3.84,0c-0.4-0.3-0.79-0.71-1.22-1.01c-2.63-1.58-4.45-4.04-6.57-6.26
	c-1.72-1.82-1.82-2.63-0.4-4.65c2.1-3.01,3.14-6.64,2.93-10.3c-0.1-4.65-0.51-9.29-0.71-13.94c-0.1-3.03-0.3-6.06-0.1-9.1
	c0.33-4.64-0.17-9.29-0.55-13.91c-0.21-2.12-0.3-4.24-0.61-6.36c-0.51-3.73-2.73-4.55-5.66-2.23c-1.11,0.91-2.23,1.82-3.33,2.83
	c-0.22,0.33-0.32,0.72-0.3,1.11c0.1,3.64,0.4,7.27,0.4,10.91c0,2.32-0.21,4.55-0.4,6.87c-0.13,2.1-0.36,4.24-0.36,6.34
	c-0.1,2.32,0,4.65-0.1,6.87c-0.1,2.09-0.9,4.08-2.27,5.66c-1.29,1.55-2.01,3.51-2.02,5.53c-0.3,6.06-0.51,12.13-0.79,18.16
	c-0.13,2.26-0.79,4.46-1.93,6.43c-1.22,2.12-2.23,2.23-3.84,0.3l-1.86-2.41c-2.02-2.63-4.04-5.25-6.87-7.11
	c-3.64-2.42-4.34-5.96-3.43-9.9c0.61-2.53,1.31-4.95,1.82-7.48c1.92-8.99,1.58-17.99,0.4-26.98c-0.61-4.74-0.71-9.6-0.91-14.35
	c-0.05-0.98-0.05-1.95,0-2.93c0-3.03-0.91-4.04-4.55-3.64c-2.93,0.3-5.86,0.51-8.89,0.79c-0.09-0.06-0.2-0.26-0.3-0.36
	c0.52-0.96,1.17-1.84,1.92-2.63c3.84-3.24,7.78-6.47,11.72-9.6c1.77-1.54,3.3-3.35,4.52-5.35c0.42-0.63,1.18-0.95,1.92-0.79
	c1.6,0.22,3.05,1.05,4.04,2.32c1.44,1.7,2.72,3.42,4.3,5.1c0.85,1.01,1.84,1.89,2.93,2.63c2.63,1.58,4.34,3.73,4.24,6.97
	c0.06,0.17,0.13,0.34,0.21,0.51c1.22-1.01,2.32-1.92,3.43-2.93c1.64-1.41,3.51-2.54,5.53-3.33c1.41-0.66,2.71-1.55,3.84-2.63
	c2.83-2.6,5.46-5.32,8.25-7.95c0.79-0.79,2.02-1.22,3.03-1.82c0.15,0.11,0.32,0.18,0.51,0.21c0.05,0.67,0.05,1.35,0,2.02
	c-0.11,0.63-0.32,1.24-0.61,1.82c-2.53,6.06-2.12,12.13-0.51,18.29c0.4,1.21,1.02,2.34,1.82,3.33c0.79,1.11,1.72,1.01,2.63-0.1
	c0.24-0.31,0.44-0.65,0.61-1.01c3.03-6.26,7.9-11.01,12.63-15.86c2.32-2.32,5.25-4.04,7.98-5.96c1.52-1.11,2.23-0.71,2.73,1.11
	c0.61,2.63,1.11,5.25,1.92,7.78c1,3.12,2.78,5.94,5.16,8.19c1.45,1.56,3.76,1.97,5.66,1.01c1.22-0.61,2.42-1.11,3.64-1.58
	c0.28-0.05,0.53-0.19,0.71-0.4c0.61-1.41,1.58-1.01,2.63-0.71c1.55,0.59,3.13,1.08,4.73,1.48c1.39,0.35,2.82,0.45,4.24,0.3
	c3.33-0.51,6.57-1.22,9.9-1.92c2.9-0.57,5.41-2.38,6.87-4.95c1.11-1.72,2.42-3.43,3.64-5.16c0.46-0.34,0.97-0.61,1.52-0.79
	c0.21,0.51,0.71,1.01,0.61,1.52c-0.32,2.19,0.95,4.31,3.03,5.05c4.55,2.02,9.2,4.15,13.84,6.17c1.47,0.72,3.22,0.48,4.45-0.61
	c1.92-1.58,3.95-3.24,5.96-4.74c0.2-0.16,0.35-0.39,0.43-0.64c0.85-1.91,1.59-3.87,2.23-5.86c0.42-1.94,2.17-3.29,4.15-3.24
	c1.41-0.1,2.93-0.3,4.34-0.51c3.95-0.51,5.35-2.02,5.66-5.96c0.3-3.64,0.51-7.37,1.01-11.01c0.33-1.66,0.91-3.25,1.72-4.74
	c0.29-0.58,0.8-1.02,1.42-1.22c1.82-0.61,2.93-1.92,4.04-3.33c1.11-1.58,2.32-3.16,3.54-4.74
	C285.23,321.17,285.55,321.09,285.87,321.12L285.87,321.12z M216.58,406.2c0.1,2.12,0.21,4.24,0.4,6.36
	c0.2,2.12,0.61,4.24,0.71,6.36c0.11,2.14,1.19,4.11,2.93,5.35c3.03,2.63,6.26,3.33,9.9,1.22c0.1-0.1,0.3-0.1,0.4-0.21
	c5.25-2.32,6.47-4.45,5.76-10.11c0-0.21-0.1-0.4-0.1-0.61c0-2.83-0.1-5.66-0.1-8.49c0-1.01,0.21-2.12,0.21-3.16
	c-0.1-1.52-0.61-2.93-2.23-3.64c-2.53-1.22-5.05-2.53-7.68-3.64c-1.72-0.72-3.52-1.25-5.35-1.58c-2.02-0.3-3.03,0.71-3.64,2.63
	C216.65,399.83,216.58,402.97,216.58,406.2L216.58,406.2z M235.68,383.05h0.3c0-1.72-0.79-3.16-2.53-4.65
	c-3.84-3.33-8.39-5.76-12.83-8.28c-1.52-0.91-3.43-0.91-4.95,0c-0.71,0.4-1.31,0.71-2.02,1.11c-2.04,1.18-2.73,3.79-1.55,5.83
	c0.18,0.31,0.39,0.59,0.64,0.84c2.23,2.53,4.34,5.05,6.77,7.48c3.57,3.7,7.88,6.63,12.63,8.59c2.53,1.01,3.84,0.1,3.84-2.63
	c0-2.73-0.23-5.48-0.33-8.28L235.68,383.05z M355.32,375.47c-0.1-1.41-0.21-2.83-0.4-4.15c0-0.16-0.08-0.31-0.21-0.4
	c-1.22-0.4-1.31-2.02-2.73-2.32c-0.79-0.21-0.71-1.72,0.1-2.12c2.12-1.11,4.24-1.58,6.57-0.21c1.72,1.11,2.12,0.91,3.64-0.3
	l12.13-9.4c2.12-1.58,3.33-1.22,4.45,1.11c0.3,0.61,0.61,1.11,0.91,1.72c0.55,1.12,1.48,2.02,2.62,2.53
	c3.41,1.56,7.07,2.48,10.81,2.73c1.41,0.1,2.83-0.4,4.24-0.61c0.79-0.1,1.58-0.4,2.42-0.51c0.84-0.1,1.22,0.51,1.11,1.31
	c-0.13,0.61-0.37,1.2-0.71,1.72c-0.71,1.01-1.52,1.92-2.23,2.93c-2.09,2.62-3.07,5.96-2.73,9.29c0.1,1.11,0.3,2.32-1.01,2.83
	c-1.4,0.64-3.01,0.56-4.34-0.21c-3.68-2.4-7.93-3.8-12.33-4.04c-1.1-0.07-2.07,0.72-2.23,1.82c-0.34,1.66-0.47,3.36-0.4,5.05
	c0.1,2.23,0.51,4.55,0.79,6.77c0.07,1.68-0.17,3.36-0.71,4.95c-0.71,3.43-1.11,6.87-1.58,10.41c-0.3,2.12-0.51,4.34-0.61,6.47
	c-0.3,4.04-0.1,8.09,1.52,11.92c0.6,1.22,1.46,2.3,2.53,3.16c1.82,1.72,3.73,3.24,5.53,4.85c0.01,0.08-0.03,0.16-0.1,0.21
	c-3.24,2.63-6.36,5.25-9.6,7.78c-1.38,1.17-3.38,1.26-4.85,0.21c-1.82-1.11-3.54-2.32-5.25-3.43c-2.02-1.31-4.15-2.73-6.17-3.95
	c-1.58-1.01-1.92-1.82-1.11-3.64v-0.1c2.23-2.73,2.23-6.06,2.12-9.29c0-4.85,0.21-9.6,0.1-14.45c0-3.24-0.4-6.57-0.51-9.8
	c0-1.11,0-2.32,0.1-3.43c0.71-4.35-0.08-8.58-1.01-12.53c-4.95,1.92-8.49,5.66-12.43,9.1c-2.15,1.76-4.41,3.38-6.77,4.85
	c-3.64,2.42-7.27,4.65-10.91,7.11c-0.64,0.46-1.07,1.15-1.22,1.92c-0.63,3.02-0.49,6.15,0.4,9.1c1.04,3.02,1.29,6.25,0.71,9.4
	c-0.61,4.15,1.01,5.76,5.16,5.25c2.32-0.21,4.15-1.41,6.06-2.63c2.42-1.41,4.74-3.16,7.18-4.74c0.54-0.24,1.13-0.38,1.72-0.4
	c0.09,0.61,0.02,1.24-0.21,1.82c-0.77,1.37-1.72,2.62-2.83,3.73c-2.73,2.42-5.46,4.85-8.49,7.11c-3.64,2.63-7.37,4.95-11.12,7.48
	c-0.65,0.45-1.26,0.96-1.82,1.52c-1.52,1.22-3.03,1.01-3.95-0.61c-2.83-5.16-7.37-8.19-12.53-10.51c-0.91-0.4-1.92-0.91-2.83-1.41
	c-1.22-0.71-1.52-1.58-0.71-2.83c0.6-0.75,1.27-1.43,2.02-2.02c1.5-1.19,2.65-2.76,3.33-4.55c1.92-5.05,2.53-10.11,0.79-15.36
	c-0.29-0.95-0.32-1.96-0.1-2.93c0.47-2.71,0.37-5.49-0.29-8.16c-1.18-5.2-1.71-10.53-1.58-15.86c0.03-1.69-0.03-3.37-0.21-5.05
	c-0.15-1.07,0.33-2.13,1.22-2.73c1.41-0.91,3.03-1.72,4.45-2.63c0.7-0.49,1.33-1.08,1.89-1.73c0.48-0.52,1.01-1,1.58-1.41
	c2.23-1.41,4.45-2.73,6.57-4.04c1.22-0.79,2.42-1.58,3.54-2.53c1.11-0.95,2.12-1.11,3.16-0.51c1.88,1.06,3.67,2.28,5.35,3.64
	c3.54,2.93,6.97,6.17,10.51,9.2c3.14,2.67,6.69,4.82,10.51,6.36c0.32,0.03,0.63,0.11,0.92,0.22L355.32,375.47z M320.73,374.47
	c-0.1,2.32-0.1,4.55,1.01,6.77c0.16,0.42,0.26,0.86,0.3,1.31c0.21,2.32,0.4,4.65,0.71,6.97c0.02,1.09,0.76,2.04,1.82,2.32
	c1.03,0.15,2.04-0.34,2.56-1.24c1.42-1.87,3.25-3.39,5.35-4.45c1.82-0.91,3.33-2.53,4.85-3.95c1.22-1.22,0.79-2.12-0.51-3.16
	c-0.79-0.61-1.52-1.41-2.32-2.12c-2.63-2.32-5.16-4.65-7.78-6.87c-0.85-0.68-1.86-1.13-2.93-1.31c-1.41-0.4-2.53,0.51-2.73,2.02
	L320.73,374.47z M423.89,356.08v10c0.02,0.41,0.09,0.82,0.21,1.22c0.71,3.03,2.53,3.73,4.95,1.72c3.95-3.24,7.78-6.47,11.52-9.8
	c1.99-1.89,3.88-3.88,5.66-5.96c1.31-1.41,2.02-1.82,3.64-0.71c1.42,0.86,2.69,1.95,3.73,3.24c2.03,2.68,4.53,4.98,7.37,6.77
	c2.1,1.31,3.24,3.71,2.93,6.17c-0.19,4.59-0.02,9.18,0.51,13.74c0.3,3.54,0.71,7.11,0.79,10.61c0.1,2.23-0.3,4.45-0.4,6.67
	c-0.1,3.16-0.21,6.26-0.21,9.29c0.09,2.12-0.52,4.21-1.72,5.96c-1.22,1.58-1.31,3.54-1.22,5.46c0.3,4.15-0.91,7.98-2.63,11.72
	c-2.23,4.74-6.17,7.37-11.12,8.79c-2.63,0.71-5.25,1.22-7.9,0.51c-1.53-0.43-2.99-1.08-4.34-1.92c-0.47-0.45-0.73-1.07-0.71-1.72
	c0.17-0.47,0.54-0.84,1.01-1.01c2.26-0.66,4.03-2.41,4.74-4.65c0.46-1.32,0.84-2.67,1.11-4.04c0.91-4.04,1.72-8.09,2.53-12.22
	c0.3-1.5,0.5-3.02,0.61-4.55c0.29-5.74,0.03-11.49-0.79-17.17c-1.07-7.44-1.75-14.92-2.02-22.43c-0.1-3.03-1.58-4.15-4.45-3.03
	c-1.7,0.59-3.27,1.48-4.65,2.63c-3.51,3.06-6.26,6.9-8.02,11.21c-0.62,1.71-0.79,3.55-0.51,5.35c0.52,4.57,0.49,9.18-0.1,13.74
	c-0.12,0.7-0.19,1.41-0.21,2.12c0,4.65-0.91,9.2,0.21,13.84c0.77,3.26,2.21,6.33,4.24,8.99c0.88,1.05,1.03,2.52,0.4,3.73
	c-0.8,2-2.12,3.75-3.84,5.05l-3.03,2.42c-0.78,0.79-2.01,0.92-2.93,0.3c-0.38-0.21-0.72-0.47-1.01-0.79
	c-1.84-1.83-4.15-3.13-6.67-3.73c-2.05-0.37-3.9-1.44-5.25-3.03c-0.66-0.78-0.86-1.86-0.51-2.83c0.3-1.31,0.61-2.83,0.21-4.04
	c-1.41-3.84-1.41-7.9-1.72-11.84c-0.3-4.34-0.61-8.79-0.79-13.23c-0.13-5.78,0.2-11.55,0.98-17.28c0.22-2.18,0.29-4.38,0.21-6.57
	c0-2.42-0.21-4.95-0.21-7.37c0-2.42,1.22-4.34,3.03-5.96c2.83-2.53,6.26-3.84,9.9-4.65C419.64,356.59,421.56,356.48,423.89,356.08
	L423.89,356.08z M536.25,421.36c0,1.31-0.4,2.02-1.41,2.32c-7.11,2.02-12.13,6.87-16.47,12.53c-0.79,1.01-1.58,1.92-2.42,2.93
	c-0.61,0.71-1.22,0.79-1.82,0.1c-0.96-1.07-1.77-2.26-2.42-3.54c-0.91-1.72-1.41-3.54-2.23-5.25c-0.81-1.71-2.23-2.23-3.84-1.01
	c-2.23,1.58-4.34,3.43-6.47,5.05c-2.42,1.92-4.85,3.84-7.27,5.66c-0.5,0.37-1.03,0.71-1.58,1.01c-1.41,0.71-2.32,0.4-3.43-0.71
	c-5.53-5.53-11.01-11.21-17.78-15.46c-1.01-0.61-1.01-1.52-1.01-2.42c0.1-3.43,0.1-6.97,0.3-10.41c0.21-2.42,0.79-4.74,1.22-7.18
	c0.2-1.1,0.3-2.21,0.3-3.33c-0.06-2.03,0.66-4.01,2.02-5.53c1.64-1.71,3.43-3.27,5.35-4.65c1.58-1.22,3.54-2.12,5.25-3.33
	c2.02-1.41,2.32-3.03,1.01-5.25c-0.44-0.77-0.97-1.48-1.58-2.12c-2.32-2.12-3.73-4.85-5.46-7.37c-2.4-3.37-4.9-6.48-7.26-9.74
	c-0.51-0.61-0.91-1.31-1.41-2.02c-0.51-0.71-0.79-1.11-0.21-1.82c0.48-0.67,1.36-0.93,2.12-0.61c1.42,0.47,2.81,1.04,4.15,1.72
	c2.31,1.17,4.93,1.56,7.48,1.11c3.03-0.51,5.96-0.79,8.99-1.22c3.08-0.4,5.85-2.04,7.68-4.55c1.41-1.92,2.93-3.64,4.34-5.46
	c0.21-0.29,0.48-0.53,0.79-0.71c0.91-0.51,1.52-0.1,1.52,0.91v0.61c-0.79,2.93,0.71,4.65,3.03,5.86c3.54,1.92,7.11,3.73,10.61,5.53
	c1.01,0.51,2.12,1.01,3.16,1.58c1.23,0.99,2.97,1.03,4.24,0.1c1.58-1.01,3.16-2.23,4.65-3.24c1.12-0.78,2.33-1.44,3.6-1.95
	c1.52-0.61,2.32,0.21,1.92,1.72c-0.26,0.94-0.67,1.83-1.22,2.63c-0.79,1.31-1.82,2.63-2.73,3.84c-1.11,1.52-2.12,3.03-2.32,4.95
	c-0.05,0.52-0.26,1.02-0.61,1.41c-1.26,2.04-1.99,4.37-2.12,6.77c-0.4,4.65-1.31,9.4-1.58,14.05c-0.4,6.06-0.79,12.13,0.4,18.09
	c0.08,1.06,0.01,2.12-0.21,3.16c-0.18,0.73-0.32,1.48-0.4,2.23c-0.16,1.52,0.95,2.88,2.47,3.03c0.19,0.02,0.38,0.02,0.57,0
	c1.41,0,2.93-0.3,4.34-0.3C533.72,421.15,534.94,421.36,536.25,421.36L536.25,421.36z M487.95,410.44v8.28
	c0.01,0.64,0.19,1.26,0.51,1.82c1.08,1.46,2.34,2.78,3.73,3.95c1.75,1.51,4.14,2.04,6.36,1.41c1.41-0.4,2.73-1.01,4.15-1.41
	c4.24-1.11,5.66-4.04,5.66-8.28c-0.19-4.53,0.07-9.07,0.79-13.54c0.4-2.32,0-4.45-2.93-5.66c-1.9-0.95-3.74-2.01-5.53-3.16
	c-2.12-1.01-4.24-2.02-6.36-2.83c-1.45-0.66-3.16-0.03-3.84,1.41c-0.61,1.14-1.11,2.33-1.51,3.56
	C487.65,400.87,487.85,405.69,487.95,410.44L487.95,410.44z M491.79,364.65c-2.18,0.3-4.24,1.17-5.96,2.53
	c-0.83,0.61-1.29,1.6-1.22,2.63c0.16,2.15,1.01,4.18,2.43,5.8c3.24,4.29,6.94,8.21,11.01,11.72c2.52,2.21,5.48,3.86,8.69,4.85
	c1.01,0.3,1.52-0.1,2.02-0.91c1.01-1.92,0.91-3.95,0.61-6.06c-0.2-0.93-0.2-1.9,0-2.83c1.22-2.83,0.3-4.85-1.58-6.87
	c-3.84-4.15-8.69-7.11-13.42-10c-0.83-0.37-1.69-0.64-2.58-0.82L491.79,364.65z M559.99,403.65c-0.1,5.46-0.4,11.01-0.3,16.47
	c0,2.83,0.71,5.66,1.22,8.49c0.3,0.73,0.83,1.33,1.52,1.72c1.92,1.22,2.12,1.82,0.4,3.33c-1.16,0.93-2.45,1.68-3.84,2.23
	c-2.93,1.11-5.53,2.42-7.68,4.85c-1.31,1.41-2.12,1.31-3.73,0.1c-2.16-1.5-4.13-3.27-5.86-5.25c-0.61-0.71-1.31-1.41-1.92-2.12
	c-0.92-0.93-1.01-2.4-0.21-3.43c3.84-5.53,4.65-11.62,3.95-18.29c-1.5-13.05-1.85-26.2-1.03-39.31c0.64-8.96,0.11-17.96-1.58-26.77
	c-0.71-3.43,0.51-6.26,1.92-9.1c1.01-2.02,2.63-3.73,3.84-5.66c1.01-1.52,1.82-3.03,2.73-4.55c0.36-0.6,0.84-1.11,1.41-1.52
	c1.58-1.22,2.93-0.61,3.54,1.31c0.3,1.31,0.79,2.63,1.22,3.95c0.81,2.58,2.44,4.81,4.65,6.36c2.63,1.92,3.43,4.34,2.63,7.48
	c-0.96,3.15-1.74,6.36-2.32,9.6c-0.51,3.54-0.4,7.18-0.61,10.81c-0.1,2.02-0.21,3.95-0.21,5.96c0,4.34-0.1,8.69,0,12.93
	c0.1,6.77,0.4,13.54,0.61,20.31c-0.1,0.08-0.22,0.12-0.35,0.11V403.65z"/>
</svg>
