<svg width="370" height="285" viewBox="0 0 370 285" fill="none" xmlns="http://www.w3.org/2000/svg">
<path d="M181.625 33.101C181.797 33.3529 181.924 33.5264 182.046 33.7055C183.832 36.3142 185.619 38.9005 187.428 41.5091C187.682 41.845 187.81 42.2649 187.782 42.6903V76.2335C187.815 76.2503 187.848 76.2559 187.881 76.2559H187.931C188.003 76.1831 188.081 76.1327 188.158 76.0544L217.365 46.4802C217.398 46.4802 217.431 46.469 217.465 46.4578C217.492 46.5809 217.509 46.7097 217.514 46.8328V117.256C217.536 117.771 217.376 118.274 217.066 118.689C215.257 121.247 213.493 123.861 211.712 126.442C211.612 126.593 211.485 126.744 211.341 126.94C211.208 126.772 211.081 126.599 210.97 126.414C209.162 123.805 207.375 121.18 205.549 118.56C205.306 118.224 205.173 117.821 205.179 117.407V76.5974C204.908 76.5974 204.781 76.8269 204.659 76.95C201.832 79.8106 198.978 82.6824 196.151 85.5598C193.496 88.2468 190.819 90.9562 188.141 93.6433C187.865 93.8952 187.721 94.2646 187.743 94.6397V135.527C188.042 135.527 188.285 135.55 188.534 135.55C197.634 135.55 206.744 135.544 215.866 135.527C216.668 135.505 217.453 135.751 218.095 136.233C220.501 137.979 222.93 139.67 225.364 141.377C225.513 141.501 225.685 141.607 225.884 141.752C225.734 141.887 225.579 142.016 225.413 142.127C222.786 143.986 220.181 145.817 217.575 147.675C217.271 147.893 216.906 148.011 216.535 148H187.787C187.787 148.302 187.765 148.548 187.765 148.8V173.023C187.782 173.515 187.633 174.002 187.345 174.406C185.536 176.964 183.771 179.578 181.99 182.159C181.869 182.31 181.763 182.483 181.62 182.685C181.487 182.534 181.36 182.377 181.249 182.209C179.413 179.55 177.604 176.913 175.767 174.254C175.551 173.947 175.435 173.577 175.446 173.202V148.005H146.914C146.367 148.022 145.825 147.854 145.376 147.541C142.898 145.761 140.365 144.003 137.865 142.223C137.693 142.1 137.516 141.971 137.295 141.797C137.428 141.674 137.571 141.557 137.715 141.445C140.37 139.564 143.02 137.705 145.648 135.824C145.957 135.606 146.333 135.499 146.715 135.522H175.408C175.408 135.27 175.43 135.046 175.43 134.845V94.6509C175.446 94.2367 175.286 93.828 174.982 93.5481C169.5 88.0285 164.029 82.4865 158.564 76.9332C158.415 76.7821 158.315 76.6086 158.193 76.4574C158.155 76.4854 158.116 76.5022 158.072 76.5078C158.038 76.6254 158.011 76.7429 158 76.8605C157.989 77.0452 157.989 77.2299 158 77.4091V117.216C158.011 117.698 157.867 118.168 157.579 118.549L152.219 126.302C152.097 126.476 151.97 126.655 151.821 126.851C151.671 126.649 151.572 126.526 151.472 126.375C149.686 123.788 147.849 121.107 146.018 118.442C145.819 118.162 145.714 117.832 145.719 117.485V46.956C145.719 46.7824 145.742 46.6033 145.742 46.301L175.452 76.3679C175.452 75.9928 175.474 75.7633 175.474 75.5394V42.7631C175.469 42.2481 175.629 41.7443 175.928 41.3244C177.714 38.7885 179.451 36.2302 181.21 33.6719C181.332 33.5264 181.454 33.3473 181.625 33.101ZM151.743 124.281C151.793 124.281 151.843 124.259 151.893 124.259V63.2965C151.898 62.9383 151.837 62.58 151.721 62.2441C150.283 58.7062 148.845 55.1906 147.407 51.6807C147.357 51.5575 147.285 51.4288 147.207 51.2776C147.185 51.2776 147.136 51.3 147.108 51.3V116.981C147.097 117.379 147.219 117.771 147.456 118.084C148.795 119.993 150.101 121.924 151.45 123.85C151.544 124.007 151.644 124.158 151.743 124.281ZM211.391 63.0446C211.369 63.0446 211.319 63.0222 211.291 63.0222C211.219 63.1734 211.142 63.3469 211.064 63.4981C209.676 66.9352 208.288 70.3724 206.899 73.7872C206.722 74.207 206.628 74.6605 206.628 75.1195V117.082C206.612 117.362 206.695 117.636 206.855 117.86C208.293 119.92 209.709 121.975 211.12 124.035C211.203 124.136 211.297 124.225 211.391 124.309C211.391 103.854 211.391 83.4325 211.391 63.0446ZM181.603 140.303V91.5776C179.993 92.2829 178.45 92.9323 176.868 93.6097V135.449C176.84 135.768 176.968 136.076 177.216 136.278C178.533 137.459 179.844 138.685 181.138 139.866C181.271 140.034 181.432 140.179 181.603 140.303ZM181.625 35.788C181.426 36.0399 181.326 36.191 181.205 36.3366C179.916 38.2175 178.627 40.0984 177.311 41.957C177.006 42.3768 176.846 42.8918 176.862 43.4125C176.885 47.0288 176.862 50.6451 176.862 54.2558V77.8737C176.851 78.1872 176.901 78.5063 177.012 78.803C178.45 82.2905 179.916 85.7557 181.376 89.2209C181.426 89.3216 181.476 89.3944 181.603 89.5959C181.625 71.604 181.625 53.7576 181.625 35.788ZM182.123 90.9786C182.35 90.7771 182.472 90.6763 182.571 90.5756C191.947 81.0646 201.312 71.5592 210.672 62.065C210.865 61.8746 211.015 61.6395 211.12 61.3876C212.597 57.8497 214.074 54.2838 215.534 50.7458C215.6 50.5667 215.661 50.382 215.706 50.1972C215.457 50.4267 215.307 50.5723 215.186 50.6954C205.937 60.0553 196.688 69.4263 187.439 78.803C187.19 79.0605 186.991 79.3572 186.842 79.6819C185.354 83.2198 183.866 86.7689 182.378 90.3237C182.3 90.4748 182.25 90.6483 182.123 90.9786ZM180.757 90.5756C180.784 90.5476 180.818 90.5308 180.856 90.5252C180.784 90.3516 180.735 90.1725 180.657 89.999C179.119 86.3827 177.559 82.7943 175.994 79.1836C175.867 78.8758 175.679 78.5959 175.452 78.3551L148.546 50.8186L148.098 50.3652C148.081 50.5275 148.109 50.6899 148.17 50.841C149.647 54.5077 151.146 58.1968 152.656 61.8579C152.767 62.1322 152.938 62.3785 153.148 62.5856C162.204 71.7943 171.264 80.9918 180.331 90.1669C180.491 90.2957 180.63 90.43 180.757 90.5756ZM181.775 141.624C181.797 141.646 181.824 141.696 181.846 141.724H223.256C223.134 141.624 223.085 141.551 223.029 141.523C220.944 140.039 218.864 138.584 216.779 137.128C216.574 137.005 216.342 136.944 216.109 136.955H187.45C187.157 136.933 186.864 137.045 186.659 137.257C185.193 138.612 183.705 139.944 182.223 141.271C182.073 141.383 181.918 141.501 181.775 141.624ZM139.994 141.752H181.581C181.354 141.551 181.232 141.45 181.111 141.327C179.601 139.995 178.113 138.64 176.625 137.313C176.387 137.078 176.066 136.955 175.734 136.961H147.235C146.898 136.961 146.566 137.067 146.289 137.263C144.353 138.646 142.423 140.006 140.487 141.377C140.31 141.484 140.144 141.612 139.994 141.752ZM181.531 180.076C181.553 180.076 181.603 180.054 181.631 180.054V141.932C181.509 142.055 181.432 142.105 181.36 142.183C179.944 143.863 178.533 145.548 177.095 147.199C176.934 147.406 176.862 147.67 176.896 147.927V172.928C176.885 173.241 176.984 173.555 177.167 173.807C178.533 175.766 179.877 177.72 181.232 179.679C181.304 179.774 181.404 179.925 181.531 180.076Z" fill="white"/>
<path d="M158.132 179.763C159.084 180.328 159.366 181.291 159.471 182.31C159.974 185.988 160.423 189.666 160.926 193.36C161.042 194.211 161.147 195.001 161.208 195.851C161.324 197.268 161.933 197.772 163.332 197.62C164.007 197.503 164.615 197.279 165.29 197.223C166.69 197.105 168.084 197.055 169.483 196.937C170.092 196.842 170.711 196.803 171.325 196.82C171.69 196.825 172.039 196.982 172.277 197.262C172.443 197.704 172.111 198.051 171.663 198.337C171.287 198.6 170.933 198.897 170.601 199.221C170.379 199.445 170.208 199.731 169.987 199.955C168.936 201.086 168.012 202.34 167.249 203.689C166.574 205.043 166.076 205.161 164.627 204.937C164.073 204.808 163.515 204.73 162.95 204.713C161.778 204.657 160.992 205.334 160.992 206.527C160.865 209.292 160.865 212.063 160.76 214.834C160.644 216.698 160.539 218.624 160.257 220.494C159.864 222.817 160.091 225.079 160.201 227.396C160.317 228.924 160.257 230.453 160.317 231.981C160.34 232.781 160.511 233.565 160.821 234.304C161.44 235.502 162.176 236.638 163.006 237.696C163.387 238.127 163.869 238.463 164.405 238.659C164.887 238.85 165.124 239.404 164.936 239.891C164.914 239.952 164.881 240.014 164.842 240.076C164.361 241.139 163.504 241.985 162.442 242.449C160.754 243.155 159.228 244.207 157.966 245.545C157.446 246.065 156.888 246.536 156.29 246.961C156.091 247.09 155.837 247.112 155.616 247.017C155.25 246.844 154.907 246.614 154.609 246.334L149.249 240.77C148.756 240.244 148.341 239.65 148.015 239.001C147.589 238.346 147.711 237.473 148.297 236.963C149.531 235.832 149.807 234.36 149.918 232.776C150.084 230.912 150.593 229.098 150.869 227.234C151.262 224.743 151.428 222.201 150.869 219.721C150.72 218.697 150.681 217.661 150.753 216.626C150.869 213.345 150.869 210.065 150.316 206.84C150.233 206.001 149.619 205.312 148.806 205.144C147.534 204.758 146.184 204.679 144.873 204.92C144.757 204.92 144.652 204.976 144.536 204.976C143.363 204.752 142.694 205.318 142.135 206.331C141.46 207.63 140.514 208.76 140.387 210.311C140.376 210.434 140.337 210.546 140.271 210.653C139.43 211.901 139.491 213.368 139.43 214.778C139.314 217.947 139.093 221.054 139.148 224.222C139.198 226.215 139.38 228.197 139.707 230.162C139.895 231.152 139.911 232.166 139.762 233.156C139.718 233.515 139.696 233.873 139.707 234.231C139.823 235.194 140.321 235.586 141.217 235.53C141.997 235.474 142.782 235.306 143.617 235.189C144.005 235.133 144.403 235.133 144.79 235.189C145.011 235.183 145.222 235.289 145.349 235.474C145.327 235.732 145.249 235.983 145.128 236.207C144.945 236.37 144.735 236.504 144.514 236.605C141.101 238.021 138.7 240.451 136.742 243.507C136.46 243.949 136.128 244.47 135.79 244.923C135.287 245.545 134.839 245.606 134.28 245.091C133.992 244.812 133.749 244.487 133.555 244.129C133.118 243.278 132.775 242.432 132.322 241.581C132.272 241.402 132.195 241.229 132.101 241.072C131.426 239.941 130.867 239.773 129.866 240.63C128.693 241.593 127.631 242.667 126.514 243.686C125.396 244.705 124.168 245.836 122.935 246.855C121.928 247.706 121.259 247.588 120.313 246.737C117.353 244.022 114.278 241.436 110.815 239.381C110.549 239.186 110.356 238.906 110.256 238.592C110.052 237.092 109.958 235.58 109.974 234.063C110.09 231.634 110.367 229.199 110.533 226.764C110.56 225.454 111.103 224.211 112.043 223.31C113.359 222.117 114.737 221.003 116.181 219.973C117.801 218.725 117.929 217.992 116.618 216.469C114.554 214.039 112.541 211.548 110.466 209.113C110.312 208.928 110.146 208.76 109.963 208.604C108.287 210.753 106.666 212.847 105.045 214.935C104.487 215.685 104.194 216.603 104.205 217.538C104.321 220.992 104.26 224.44 104.542 227.833C104.658 229.647 105.267 231.455 105.604 233.263C105.825 234.338 106.041 235.412 106.218 236.543C106.362 237.321 106.085 238.116 105.494 238.631C105.034 239.113 104.548 239.566 104.039 239.986C102.529 241.285 101.915 243.154 101.417 244.963C101.251 245.584 101.024 246.379 100.465 246.435C99.9066 246.491 99.2926 245.993 98.8998 245.584C98.4296 244.935 97.9982 244.252 97.6165 243.546C97.4616 243.233 97.2735 242.936 97.0578 242.662C95.437 240.865 94.2865 238.687 93.7056 236.331C93.5397 235.709 93.7056 234.976 93.761 234.293C94.0431 232.205 94.5409 230.106 94.6018 227.962C94.7069 225.056 94.6128 222.145 94.3196 219.251C94.0375 216.027 93.4788 213.088 93.0363 210.087C92.9036 209.483 92.7155 208.889 92.4776 208.318C92.0406 207.355 91.4156 207.131 90.7296 207.921C89.7893 208.85 88.9982 209.919 88.3842 211.089C87.3609 213.39 86.7635 215.864 86.6362 218.389C86.415 222.408 86.2988 226.344 86.0222 230.38C85.8729 232.955 86.0609 235.541 86.5809 238.072C86.6805 238.71 87.1064 239.247 87.6983 239.488C88.7604 240.053 88.871 240.507 87.9196 241.302C87.2724 241.867 86.5256 242.309 85.7235 242.6C83.9313 243.283 82.3105 244.073 81.0272 245.595C80.3025 246.446 79.7936 246.385 78.903 245.595C78.6818 245.427 78.466 245.198 78.2282 245.03C76.7734 244.145 75.7666 242.768 74.5939 241.525C73.6425 240.507 73.5871 240.053 74.3726 238.922C75.5343 237.237 76.1096 235.205 75.9934 233.156C75.9381 230.553 75.7113 227.956 75.6006 225.353C75.5453 223.657 75.4347 221.96 75.5453 220.259C75.7279 217.661 75.4513 215.058 75.2411 212.472C75.1249 211.285 75.0751 210.098 74.9037 208.912C74.6216 206.824 73.3935 206.364 71.7728 207.663C71.1588 208.173 70.5392 208.682 69.9307 209.247C69.809 209.432 69.7537 209.65 69.7648 209.869C69.8201 211.906 69.9861 213.939 69.9861 215.976C69.9861 217.275 69.8699 218.523 69.7648 219.822C69.6929 220.998 69.5657 222.196 69.5657 223.371C69.5103 224.67 69.5657 225.974 69.5103 227.217C69.455 228.387 69.0125 229.501 68.2547 230.385C67.5411 231.253 67.1428 232.35 67.1373 233.481C66.9713 236.874 66.8552 240.272 66.7003 243.647C66.6284 244.912 66.2633 246.144 65.6327 247.247C64.9578 248.433 64.3991 248.495 63.5085 247.415L62.4796 246.065C61.3623 244.593 60.2449 243.127 58.6794 242.085C56.6659 240.731 56.2787 238.749 56.7821 236.543C57.1195 235.127 57.5067 233.772 57.7888 232.356C58.8509 227.323 58.6628 222.285 58.0101 217.253C57.6727 214.599 57.6174 211.878 57.5067 209.219C57.4791 208.671 57.4791 208.128 57.5067 207.579C57.5067 205.883 57.0033 205.318 54.9898 205.542C53.3691 205.71 51.7483 205.827 50.0722 205.984C50.0224 205.95 49.9616 205.838 49.9063 205.782C50.1939 205.245 50.5535 204.752 50.9684 204.31C53.0925 202.496 55.272 200.688 57.4514 198.936C58.4305 198.074 59.2768 197.061 59.9517 195.941C60.184 195.588 60.6044 195.409 61.0138 195.499C61.8988 195.622 62.7009 196.087 63.2485 196.797C64.0451 197.749 64.7531 198.712 65.6271 199.652C66.0973 200.218 66.645 200.711 67.2479 201.125C68.7027 202.009 69.6486 203.213 69.5933 205.027C69.6265 205.122 69.6652 205.217 69.7095 205.312C70.3843 204.747 70.9928 204.237 71.6068 203.672C72.514 202.883 73.5484 202.25 74.6658 201.808C75.4458 201.438 76.1649 200.94 76.79 200.335C78.3554 198.88 79.8102 197.357 81.3535 195.885C81.7905 195.443 82.4709 195.202 83.0296 194.866C83.1126 194.928 83.2066 194.967 83.3117 194.984C83.3394 195.359 83.3394 195.739 83.3117 196.115C83.2509 196.467 83.1347 196.809 82.9743 197.133C81.5748 200.526 81.8016 203.924 82.6922 207.372C82.9135 208.049 83.2564 208.682 83.6989 209.236C84.1359 209.858 84.6504 209.802 85.1538 209.18C85.2865 209.007 85.3972 208.816 85.4912 208.615C87.1673 205.111 89.8612 202.451 92.4776 199.736C93.761 198.438 95.3817 197.475 96.8919 196.4C97.7327 195.779 98.1254 196.003 98.402 197.021C98.7394 198.494 99.016 199.96 99.4641 201.377C100.017 203.123 101.002 204.702 102.318 205.961C103.12 206.835 104.398 207.064 105.449 206.527C106.124 206.185 106.788 205.905 107.463 205.642C107.618 205.614 107.756 205.536 107.856 205.418C108.193 204.629 108.73 204.853 109.31 205.021C110.168 205.351 111.042 205.626 111.927 205.849C112.696 206.045 113.487 206.101 114.272 206.017C116.114 205.732 117.906 205.334 119.749 204.943C121.353 204.624 122.741 203.61 123.549 202.172C124.163 201.209 124.887 200.251 125.562 199.283C125.817 199.093 126.099 198.942 126.403 198.841C126.519 199.126 126.796 199.406 126.74 199.692C126.563 200.918 127.266 202.104 128.417 202.519C130.933 203.649 133.506 204.842 136.072 205.973C136.885 206.376 137.853 206.241 138.534 205.631C139.596 204.747 140.719 203.817 141.831 202.978C141.941 202.888 142.024 202.759 142.069 202.619C142.539 201.55 142.948 200.453 143.302 199.339C143.534 198.253 144.502 197.497 145.598 197.525C146.378 197.469 147.219 197.357 147.998 197.24C150.183 196.954 150.958 196.109 151.129 193.903C151.295 191.866 151.411 189.778 151.688 187.74C151.871 186.811 152.191 185.921 152.64 185.087C152.8 184.762 153.082 184.516 153.425 184.404C154.432 184.062 155.046 183.329 155.66 182.539C156.274 181.655 156.943 180.77 157.618 179.886C157.778 179.791 157.955 179.746 158.132 179.763ZM119.804 227.391C119.859 228.577 119.92 229.764 120.025 230.951C120.136 232.138 120.363 233.324 120.418 234.511C120.479 235.709 121.076 236.812 122.039 237.506C123.715 238.978 125.501 239.37 127.515 238.189C127.57 238.133 127.681 238.133 127.736 238.072C130.64 236.773 131.315 235.58 130.922 232.412C130.922 232.294 130.867 232.188 130.867 232.07C130.867 230.486 130.812 228.902 130.812 227.318C130.812 226.752 130.928 226.131 130.928 225.549C130.873 224.698 130.59 223.909 129.694 223.511C128.295 222.828 126.901 222.095 125.446 221.473C124.495 221.07 123.499 220.774 122.487 220.589C121.369 220.421 120.811 220.986 120.473 222.061C119.843 223.825 119.804 225.582 119.804 227.391ZM130.369 214.431H130.535C130.535 213.468 130.098 212.662 129.136 211.828C127.012 209.964 124.495 208.604 122.039 207.193C121.198 206.684 120.141 206.684 119.3 207.193C118.908 207.417 118.576 207.59 118.183 207.814C117.055 208.475 116.673 209.936 117.326 211.078C117.425 211.252 117.541 211.408 117.68 211.548C118.913 212.965 120.08 214.375 121.425 215.736C123.399 217.807 125.783 219.447 128.411 220.544C129.811 221.11 130.535 220.6 130.535 219.072C130.535 217.544 130.408 216.004 130.353 214.437L130.369 214.431ZM196.55 210.188C196.494 209.399 196.433 208.604 196.328 207.865C196.328 207.775 196.284 207.691 196.212 207.641C195.537 207.417 195.487 206.51 194.702 206.342C194.265 206.225 194.309 205.379 194.757 205.155C195.93 204.534 197.103 204.271 198.392 205.038C199.343 205.659 199.564 205.547 200.405 204.87L207.115 199.608C208.288 198.723 208.957 198.925 209.576 200.229C209.742 200.571 209.914 200.85 210.08 201.192C210.384 201.819 210.899 202.323 211.529 202.608C213.415 203.482 215.44 203.997 217.509 204.136C218.289 204.192 219.074 203.913 219.854 203.795C220.291 203.739 220.728 203.571 221.193 203.51C221.658 203.454 221.868 203.795 221.807 204.243C221.735 204.584 221.602 204.915 221.414 205.206C221.021 205.771 220.573 206.281 220.181 206.846C219.024 208.313 218.482 210.182 218.67 212.046C218.726 212.668 218.836 213.345 218.112 213.631C217.337 213.989 216.447 213.944 215.711 213.513C213.675 212.17 211.324 211.386 208.891 211.252C208.282 211.212 207.745 211.655 207.657 212.27C207.469 213.2 207.397 214.151 207.436 215.097C207.491 216.346 207.718 217.644 207.873 218.887C207.911 219.828 207.779 220.768 207.48 221.658C207.087 223.578 206.866 225.504 206.606 227.486C206.44 228.672 206.324 229.915 206.269 231.108C206.103 233.369 206.213 235.636 207.109 237.78C207.441 238.463 207.917 239.068 208.509 239.549C209.516 240.512 210.572 241.363 211.568 242.264C211.573 242.309 211.551 242.354 211.513 242.382C209.72 243.854 207.994 245.321 206.202 246.737C205.439 247.392 204.333 247.443 203.519 246.855C202.513 246.233 201.561 245.556 200.615 244.935C199.498 244.201 198.32 243.406 197.202 242.723C196.328 242.158 196.14 241.705 196.588 240.686V240.63C197.822 239.102 197.822 237.237 197.761 235.429C197.761 232.714 197.877 230.055 197.816 227.34C197.816 225.526 197.595 223.662 197.534 221.854C197.534 221.233 197.534 220.555 197.589 219.934C197.982 217.499 197.545 215.131 197.031 212.92C194.293 213.995 192.334 216.088 190.155 218.014C188.966 218.999 187.716 219.906 186.41 220.729C184.397 222.084 182.389 223.332 180.375 224.709C180.021 224.967 179.783 225.353 179.7 225.784C179.352 227.475 179.429 229.227 179.921 230.878C180.497 232.569 180.635 234.377 180.314 236.14C179.977 238.463 180.873 239.365 183.169 239.079C184.452 238.962 185.464 238.29 186.521 237.607C187.859 236.818 189.143 235.838 190.492 234.953C190.791 234.819 191.117 234.741 191.444 234.73C191.494 235.071 191.455 235.424 191.328 235.748C190.902 236.515 190.376 237.215 189.762 237.836C188.252 239.191 186.742 240.551 185.066 241.817C183.052 243.289 180.989 244.588 178.915 246.004C178.555 246.256 178.218 246.541 177.908 246.855C177.067 247.538 176.232 247.42 175.723 246.513C174.158 243.625 171.646 241.929 168.792 240.63C168.288 240.406 167.73 240.12 167.226 239.84C166.552 239.443 166.386 238.956 166.834 238.256C167.166 237.836 167.536 237.456 167.951 237.125C168.781 236.459 169.417 235.58 169.793 234.578C170.855 231.751 171.193 228.919 170.23 225.98C170.07 225.448 170.053 224.883 170.175 224.34C170.435 222.823 170.379 221.266 170.014 219.772C169.362 216.861 169.068 213.877 169.14 210.893C169.157 209.947 169.124 209.007 169.024 208.066C168.941 207.467 169.207 206.874 169.699 206.538C170.479 206.029 171.375 205.575 172.161 205.066C172.548 204.791 172.896 204.461 173.206 204.097C173.472 203.806 173.765 203.537 174.08 203.308C175.314 202.519 176.542 201.78 177.714 201.046C178.389 200.604 179.053 200.162 179.673 199.63C180.287 199.098 180.845 199.009 181.421 199.345C182.46 199.938 183.451 200.621 184.38 201.382C186.338 203.022 188.235 204.836 190.194 206.532C191.931 208.027 193.894 209.231 196.007 210.093C196.184 210.11 196.356 210.154 196.516 210.216L196.55 210.188ZM177.416 209.628C177.36 210.927 177.36 212.175 177.974 213.418C178.063 213.653 178.118 213.899 178.14 214.151C178.256 215.45 178.362 216.754 178.533 218.053C178.544 218.663 178.953 219.195 179.54 219.352C180.11 219.436 180.668 219.161 180.956 218.658C181.741 217.611 182.754 216.76 183.915 216.167C184.922 215.657 185.757 214.75 186.598 213.955C187.273 213.272 187.035 212.769 186.316 212.186C185.879 211.845 185.475 211.397 185.033 211C183.578 209.701 182.178 208.397 180.729 207.154C180.259 206.773 179.7 206.521 179.108 206.42C178.328 206.197 177.709 206.706 177.598 207.551L177.416 209.628ZM234.48 199.333V204.931C234.491 205.161 234.53 205.39 234.596 205.614C234.989 207.311 235.995 207.702 237.334 206.577C239.519 204.763 241.638 202.955 243.707 201.091C244.807 200.033 245.853 198.919 246.837 197.755C247.562 196.965 247.955 196.736 248.851 197.357C249.636 197.839 250.339 198.449 250.914 199.171C252.037 200.671 253.42 201.959 254.991 202.961C256.153 203.694 256.783 205.038 256.612 206.415C256.507 208.984 256.601 211.554 256.894 214.107C257.06 216.088 257.287 218.087 257.331 220.046C257.386 221.294 257.165 222.537 257.11 223.78C257.054 225.549 256.994 227.284 256.994 228.98C257.043 230.167 256.706 231.337 256.042 232.317C255.367 233.201 255.317 234.298 255.367 235.373C255.533 237.696 254.864 239.84 253.912 241.934C252.679 244.588 250.499 246.06 247.761 246.855C246.306 247.252 244.857 247.538 243.391 247.14C242.545 246.9 241.737 246.536 240.991 246.065C240.731 245.814 240.587 245.466 240.598 245.103C240.692 244.839 240.896 244.632 241.156 244.537C242.407 244.168 243.386 243.188 243.778 241.934C244.033 241.195 244.243 240.439 244.392 239.673C244.896 237.411 245.344 235.144 245.792 232.832C245.958 231.992 246.069 231.141 246.129 230.285C246.29 227.071 246.146 223.853 245.692 220.673C245.101 216.508 244.724 212.321 244.575 208.117C244.52 206.42 243.701 205.793 242.113 206.42C241.173 206.751 240.305 207.249 239.541 207.893C237.6 209.606 236.078 211.755 235.105 214.168C234.762 215.125 234.668 216.155 234.823 217.163C235.11 219.721 235.094 222.302 234.767 224.855C234.701 225.247 234.662 225.644 234.651 226.041C234.651 228.645 234.148 231.192 234.767 233.789C235.193 235.614 235.99 237.333 237.113 238.822C237.6 239.409 237.683 240.232 237.334 240.91C236.892 242.029 236.161 243.009 235.21 243.737L233.534 245.091C233.102 245.534 232.422 245.606 231.913 245.259C231.703 245.142 231.515 244.996 231.354 244.817C230.337 243.793 229.059 243.065 227.665 242.729C226.531 242.522 225.508 241.923 224.761 241.033C224.396 240.596 224.285 239.992 224.479 239.449C224.645 238.715 224.816 237.864 224.595 237.187C223.815 235.037 223.815 232.765 223.643 230.559C223.477 228.129 223.306 225.638 223.206 223.153C223.134 219.917 223.317 216.687 223.748 213.48C223.87 212.259 223.909 211.028 223.865 209.802C223.865 208.447 223.748 207.031 223.748 205.676C223.748 204.321 224.423 203.246 225.425 202.34C226.99 200.923 228.887 200.19 230.901 199.736C232.129 199.619 233.191 199.557 234.48 199.333ZM296.633 235.877C296.633 236.61 296.412 237.008 295.853 237.176C291.92 238.307 289.143 241.022 286.743 244.19C286.306 244.756 285.869 245.265 285.404 245.83C285.066 246.228 284.729 246.273 284.397 245.886C283.866 245.287 283.418 244.621 283.058 243.905C282.555 242.942 282.279 241.923 281.825 240.966C281.377 240.008 280.591 239.717 279.701 240.4C278.467 241.285 277.3 242.32 276.122 243.227C274.783 244.302 273.439 245.377 272.1 246.396C271.824 246.603 271.531 246.793 271.226 246.961C270.446 247.359 269.943 247.185 269.329 246.564C266.27 243.468 263.239 240.288 259.494 237.909C258.935 237.568 258.935 237.058 258.935 236.554C258.99 234.634 258.99 232.653 259.101 230.727C259.217 229.372 259.538 228.074 259.776 226.708C259.887 226.092 259.942 225.47 259.942 224.843C259.909 223.707 260.307 222.599 261.059 221.748C261.966 220.791 262.957 219.917 264.019 219.145C264.893 218.462 265.977 217.958 266.923 217.281C268.04 216.491 268.206 215.584 267.481 214.342C267.238 213.911 266.945 213.513 266.607 213.155C265.324 211.968 264.544 210.44 263.587 209.029C262.26 207.143 260.877 205.402 259.571 203.577C259.289 203.235 259.068 202.843 258.791 202.446C258.509 202.048 258.354 201.825 258.675 201.427C258.941 201.052 259.427 200.906 259.848 201.086C260.633 201.349 261.402 201.668 262.143 202.048C263.421 202.703 264.871 202.922 266.281 202.67C267.957 202.384 269.578 202.228 271.254 201.987C272.958 201.763 274.49 200.845 275.502 199.44C276.282 198.365 277.123 197.402 277.903 196.383C278.019 196.221 278.169 196.087 278.34 195.986C278.843 195.7 279.181 195.93 279.181 196.495V196.837C278.744 198.477 279.574 199.44 280.857 200.117C282.815 201.192 284.79 202.205 286.726 203.213C287.285 203.498 287.899 203.778 288.474 204.097C289.154 204.651 290.117 204.674 290.819 204.153C291.693 203.588 292.567 202.905 293.392 202.34C294.011 201.903 294.68 201.533 295.383 201.248C296.224 200.906 296.666 201.365 296.445 202.211C296.301 202.737 296.074 203.235 295.77 203.683C295.333 204.416 294.763 205.155 294.26 205.833C293.646 206.684 293.087 207.529 292.977 208.604C292.949 208.895 292.833 209.175 292.639 209.393C291.942 210.535 291.538 211.839 291.467 213.183C291.245 215.786 290.742 218.445 290.593 221.048C290.371 224.44 290.156 227.838 290.814 231.175C290.858 231.768 290.819 232.362 290.698 232.944C290.598 233.352 290.521 233.772 290.476 234.192C290.388 235.043 291.002 235.804 291.843 235.888C291.948 235.9 292.053 235.9 292.158 235.888C292.938 235.888 293.779 235.72 294.559 235.72C295.234 235.76 295.908 235.877 296.633 235.877ZM269.915 229.764V234.399C269.921 234.758 270.02 235.105 270.197 235.418C270.795 236.235 271.492 236.974 272.261 237.629C273.229 238.475 274.551 238.771 275.779 238.419C276.559 238.195 277.289 237.853 278.075 237.629C280.42 237.008 281.205 235.368 281.205 232.994C281.1 230.458 281.244 227.917 281.642 225.414C281.864 224.116 281.642 222.923 280.022 222.246C278.971 221.714 277.953 221.121 276.963 220.477C275.79 219.912 274.617 219.346 273.445 218.893C272.642 218.523 271.697 218.876 271.32 219.682C270.983 220.32 270.706 220.986 270.485 221.675C269.749 224.407 269.86 227.105 269.915 229.764ZM272.04 204.131C270.834 204.299 269.694 204.786 268.743 205.547C268.284 205.889 268.029 206.443 268.068 207.019C268.156 208.223 268.627 209.359 269.412 210.266C271.204 212.668 273.251 214.862 275.502 216.827C276.896 218.064 278.534 218.988 280.309 219.542C280.868 219.71 281.15 219.486 281.427 219.033C281.985 217.958 281.93 216.822 281.764 215.64C281.653 215.12 281.653 214.577 281.764 214.056C282.439 212.472 281.93 211.341 280.89 210.21C278.766 207.887 276.083 206.23 273.467 204.612C273.008 204.405 272.532 204.254 272.04 204.153V204.131ZM309.765 225.963C309.71 229.02 309.544 232.126 309.599 235.183C309.599 236.767 309.992 238.351 310.274 239.936C310.44 240.344 310.733 240.68 311.115 240.898C312.177 241.581 312.288 241.917 311.336 242.763C310.694 243.283 309.981 243.703 309.212 244.011C307.591 244.632 306.153 245.366 304.964 246.726C304.239 247.515 303.791 247.459 302.9 246.782C301.706 245.942 300.616 244.951 299.659 243.843C299.321 243.446 298.934 243.054 298.597 242.656C298.088 242.136 298.038 241.313 298.481 240.736C300.605 237.64 301.053 234.231 300.666 230.497C299.836 223.192 299.642 215.831 300.096 208.492C300.45 203.476 300.157 198.438 299.222 193.506C298.829 191.586 299.504 190.002 300.284 188.412C300.843 187.281 301.739 186.324 302.408 185.243C302.967 184.392 303.415 183.547 303.918 182.696C304.117 182.36 304.383 182.075 304.698 181.845C305.572 181.162 306.319 181.504 306.656 182.579C306.822 183.312 307.093 184.051 307.331 184.79C307.779 186.234 308.681 187.482 309.903 188.35C311.358 189.425 311.801 190.78 311.358 192.537C310.827 194.301 310.396 196.098 310.075 197.912C309.793 199.893 309.854 201.931 309.737 203.963C309.682 205.094 309.621 206.174 309.621 207.299C309.621 209.729 309.566 212.164 309.621 214.538C309.677 218.327 309.843 222.117 309.959 225.907C309.903 225.952 309.837 225.974 309.765 225.969V225.963Z" fill="white"/>
</svg>
